PathFileType	4	(X/Y/Z)	OpenSim_Sub07_CSStiffKnee_Magnet.trc
DataRate	CameraRate	NumFrames	NumMarkers	Units	OrigDataRate	OrigDataStartFrame	OrigNumFrames
100	100	40	8	m	100	1	6734
Frame#	Time	torso_imu_offset_imu	pelvis_imu_offset_imu	tibia_r_imu_offset_imu	femur_r_imu_offset_imu	tibia_l_imu_offset_imu	femur_l_imu_offset_imu	toes_r_imu_offset_imu	toes_l_imu_offset_imu
				X1	Y1	Z1	X2	Y2	Z2	X3	Y3	Z3	X4	Y4	Z4	X5	Y5	Z5	X6	Y6	Z6	X7	Y7	Z7	X8		Y8	Z8	

1	0	0.91859041	0.23791709	-0.04971424	-0.74053364	0.23129927	-0.56253276	-0.59370341	-0.58411250	0.09527983	-0.77103763	-0.33374422	-0.23362491	-0.66446400	0.47151933	0.16796437	-0.57652624	-0.11740756	0.30998848	-0.62629207	-0.32083964	-0.34924165	-0.69817198	-0.24579857	-0.38793349
2	0.01000000	0.92202164	0.23710675	-0.05368620	-0.74094389	0.22981562	-0.55654622	-0.59099405	-0.58739462	0.08695423	-0.77193035	-0.33082858	-0.23389350	-0.66308752	0.46689478	0.17379648	-0.57554732	-0.12395304	0.30726870	-0.62640309	-0.32324832	-0.35549711	-0.69916102	-0.25216250	-0.38139973
3	0.02000000	0.91821949	0.23582437	-0.05431902	-0.74162710	0.22754196	-0.55487440	-0.59152798	-0.58358896	0.08559895	-0.77065729	-0.33455746	-0.23405009	-0.66572404	0.46325347	0.17683436	-0.57267250	-0.12121857	0.30891596	-0.62501113	-0.32196188	-0.35104212	-0.69778597	-0.25320123	-0.38536896
4	0.03000000	0.92053439	0.23863352	-0.05170810	-0.73708596	0.22574760	-0.55749802	-0.59218768	-0.58142075	0.08984052	-0.77185786	-0.33905710	-0.23097334	-0.66337810	0.46752820	0.17728220	-0.57657412	-0.11875018	0.30876574	-0.62416294	-0.32083862	-0.34905732	-0.69757621	-0.25183064	-0.37924824
5	0.04000000	0.92146145	0.24029483	-0.05040334	-0.73987721	0.22672454	-0.56205916	-0.59362885	-0.58256130	0.08813851	-0.77046356	-0.33352187	-0.23641878	-0.66181850	0.46743154	0.17772811	-0.57163253	-0.12032574	0.30644000	-0.62380029	-0.32348081	-0.35002989	-0.69685003	-0.24826611	-0.38129626
6	0.05000000	0.92486331	0.23931428	-0.05005411	-0.74074905	0.22844710	-0.56087363	-0.59033514	-0.58169166	0.08774784	-0.77268093	-0.33606442	-0.23699432	-0.66384477	0.46964048	0.17350167	-0.57526729	-0.11817444	0.31020621	-0.62693613	-0.32514113	-0.34964876	-0.69432469	-0.24869301	-0.38346143
7	0.06000000	0.92502753	0.23773918	-0.05128123	-0.73638108	0.22835949	-0.56052788	-0.59056327	-0.58650606	0.09298314	-0.77190842	-0.33233154	-0.23397633	-0.65763996	0.46862164	0.17435433	-0.57533816	-0.11817807	0.30687139	-0.62461718	-0.32341474	-0.35257160	-0.70088913	-0.24882458	-0.37659637
8	0.07000000	0.92216846	0.23718123	-0.05110917	-0.74026606	0.22768161	-0.55638089	-0.59297377	-0.58611114	0.09257002	-0.77023514	-0.32902196	-0.23448241	-0.66336739	0.46659278	0.17886484	-0.57881410	-0.11967994	0.30557929	-0.62526502	-0.32071983	-0.35125955	-0.69688909	-0.25285677	-0.38185751
9	0.08000000	0.91621177	0.23570436	-0.04928945	-0.73786199	0.22589121	-0.56330266	-0.58888878	-0.58254609	0.08866707	-0.77092162	-0.33060341	-0.23692843	-0.66576856	0.46323931	0.18277902	-0.57326609	-0.12279065	0.30554900	-0.62426344	-0.32312023	-0.35211330	-0.69774450	-0.25304269	-0.38100639
10	0.09000000	0.92228518	0.23903907	-0.05093589	-0.74202905	0.22595111	-0.55675970	-0.59046362	-0.58317594	0.08901885	-0.77331823	-0.33064121	-0.23712610	-0.66031460	0.46108640	0.17846792	-0.57928403	-0.11975770	0.30626801	-0.62309170	-0.32256969	-0.35178517	-0.69518029	-0.24661871	-0.38068157
11	0.10000000	0.92441483	0.23868057	-0.04662914	-0.74385339	0.22680766	-0.55610123	-0.59093657	-0.58279814	0.09004876	-0.77449112	-0.32813083	-0.24177245	-0.66282573	0.46597570	0.17801115	-0.57895883	-0.11791363	0.30801180	-0.62559018	-0.32312503	-0.35414193	-0.69973761	-0.25136556	-0.37824036
12	0.11000000	0.92180373	0.23675571	-0.05415186	-0.73952408	0.22785180	-0.56374197	-0.59035840	-0.58379156	0.09532755	-0.77120357	-0.33291506	-0.23675123	-0.65994803	0.46721615	0.17724763	-0.57526640	-0.11990804	0.30815658	-0.62368194	-0.32134215	-0.34647765	-0.69815245	-0.24747300	-0.38066559
13	0.12000000	0.92003362	0.23942939	-0.04977411	-0.74102112	0.22600873	-0.55823760	-0.58991361	-0.58897709	0.09402072	-0.77167738	-0.33364003	-0.23816713	-0.66212434	0.46665212	0.17736610	-0.57984448	-0.12208997	0.31123818	-0.62095339	-0.31936103	-0.34525106	-0.69685163	-0.24707111	-0.38164855
14	0.13000000	0.92133467	0.23526187	-0.04890367	-0.74238707	0.22525811	-0.56106302	-0.58956619	-0.59049605	0.08968799	-0.77309383	-0.33435429	-0.24058244	-0.66466297	0.46854004	0.17567199	-0.58007790	-0.11831183	0.31102099	-0.62316051	-0.32304260	-0.34967015	-0.69579763	-0.24820706	-0.37669901
15	0.14000000	0.92161793	0.23597999	-0.05535513	-0.73850568	0.22538235	-0.55448043	-0.59412762	-0.58668540	0.09491821	-0.77245056	-0.33598103	-0.24181508	-0.66336110	0.47061488	0.18072905	-0.57284856	-0.12224972	0.30821982	-0.62255268	-0.32362186	-0.35052238	-0.69614898	-0.24683812	-0.38256560
16	0.15000000	0.91778435	0.23534186	-0.04879772	-0.73713154	0.22727774	-0.55495008	-0.58724124	-0.58713413	0.09145372	-0.77745666	-0.33234239	-0.23835349	-0.66422843	0.46680912	0.17914520	-0.57572702	-0.12488990	0.30936483	-0.62350608	-0.32296171	-0.34684183	-0.70178868	-0.24847088	-0.38266094
17	0.16000000	0.91802980	0.23637158	-0.05493393	-0.74387758	0.22503990	-0.55305631	-0.59151710	-0.58778538	0.08793690	-0.76920682	-0.32998527	-0.23953623	-0.65990129	0.46578344	0.18015625	-0.57618973	-0.12191567	0.30938864	-0.62483054	-0.31930150	-0.34595949	-0.70151998	-0.25129308	-0.38125354
18	0.17000000	0.91949309	0.23734395	-0.05274187	-0.74343897	0.22738148	-0.55676042	-0.58898591	-0.58926186	0.09124819	-0.77107029	-0.33135322	-0.24389546	-0.66109107	0.46312197	0.17562651	-0.57726261	-0.11554119	0.31005645	-0.62177592	-0.32221896	-0.35049936	-0.70324980	-0.25267628	-0.38441064
19	0.18000000	0.92251424	0.23617724	-0.05438413	-0.74006280	0.22496740	-0.55610838	-0.58933949	-0.58584201	0.09034854	-0.77282857	-0.32998075	-0.23960669	-0.66338574	0.46847130	0.17804747	-0.57718116	-0.11422303	0.30342549	-0.62643050	-0.31814838	-0.34944491	-0.69981943	-0.24438203	-0.38474585
20	0.19000000	0.91993596	0.23773677	-0.05250407	-0.74398434	0.22756113	-0.55406571	-0.58983888	-0.58710394	0.09342271	-0.77157513	-0.33160687	-0.24390145	-0.66145511	0.46826155	0.18050597	-0.57833776	-0.12391290	0.30843260	-0.63217374	-0.31874468	-0.35291756	-0.69679789	-0.25244006	-0.38431015
21	0.20000000	0.92101481	0.23477192	-0.05600378	-0.74656658	0.22375225	-0.55678238	-0.59157623	-0.59039338	0.08758739	-0.77161642	-0.32891133	-0.24690968	-0.65808903	0.46379987	0.17934589	-0.57324929	-0.11840524	0.30364517	-0.62353920	-0.31947294	-0.34996752	-0.69989974	-0.24775172	-0.38781149
22	0.21000000	0.92311364	0.23429588	-0.05532578	-0.74362600	0.22690718	-0.55316782	-0.59155627	-0.58416682	0.08888461	-0.77439917	-0.33115342	-0.24253459	-0.66176546	0.46245915	0.18500547	-0.57547946	-0.11773035	0.30209275	-0.62181512	-0.32390539	-0.34821338	-0.69703096	-0.24246621	-0.38439859
23	0.22000000	0.92130701	0.23524565	-0.04930086	-0.74278376	0.22901108	-0.55511701	-0.59142642	-0.58631576	0.09354175	-0.77272192	-0.33268434	-0.24034905	-0.66580198	0.46305279	0.18360534	-0.57299131	-0.12333583	0.31024933	-0.62280413	-0.32408587	-0.34984259	-0.69286697	-0.24629656	-0.38368687
24	0.23000000	0.91857166	0.23447115	-0.05160849	-0.74523338	0.23000284	-0.55345734	-0.59154633	-0.58582063	0.08773793	-0.77487497	-0.33045642	-0.24117842	-0.66262747	0.46591597	0.17869593	-0.57761902	-0.11871367	0.30601961	-0.62548742	-0.32324344	-0.35293633	-0.69801068	-0.24428513	-0.38122893
25	0.24000000	0.92070437	0.23826272	-0.05532301	-0.74318449	0.22746335	-0.55579405	-0.59078291	-0.58406981	0.08810411	-0.77451565	-0.33312936	-0.23747747	-0.66006776	0.46612360	0.18081780	-0.57798528	-0.11701434	0.29704326	-0.62212827	-0.32416135	-0.34893233	-0.69981947	-0.24738695	-0.37686370
26	0.25000000	0.92040100	0.23781252	-0.05366066	-0.74056218	0.22579113	-0.55513290	-0.58995813	-0.59085460	0.09192367	-0.77839104	-0.32983032	-0.24102139	-0.66386796	0.46178223	0.17859476	-0.57026219	-0.12129983	0.30472344	-0.62645172	-0.31935887	-0.34745086	-0.70048077	-0.24952999	-0.38226716
27	0.26000000	0.92015162	0.23719246	-0.05363007	-0.74206988	0.22656971	-0.55625367	-0.59029108	-0.59048737	0.08715841	-0.77945132	-0.33202566	-0.24219067	-0.66286114	0.46424965	0.17919644	-0.57510837	-0.11984988	0.30734706	-0.61963960	-0.32006485	-0.35140605	-0.70000567	-0.25100515	-0.37891591
28	0.27000000	0.92151182	0.23609581	-0.05675348	-0.74039816	0.22426197	-0.55695537	-0.58734375	-0.58548412	0.08726620	-0.77402922	-0.33217190	-0.24258339	-0.66755068	0.46633569	0.17777386	-0.57775955	-0.11828181	0.31306743	-0.62237896	-0.32567324	-0.34566124	-0.70334511	-0.24678790	-0.37435346
29	0.28000000	0.92073199	0.23826672	-0.05450968	-0.74263663	0.22426913	-0.55571471	-0.58986635	-0.58322585	0.09352881	-0.77390445	-0.33414129	-0.23996669	-0.66151670	0.46667522	0.17752099	-0.57484007	-0.11822444	0.31159885	-0.62467322	-0.32327880	-0.34541095	-0.70118162	-0.24621078	-0.38161498
30	0.29000000	0.91668007	0.23681339	-0.05402345	-0.74202939	0.22902247	-0.55233825	-0.58943481	-0.58573278	0.08880412	-0.77284086	-0.33298033	-0.24024465	-0.66667132	0.47055167	0.18070840	-0.57308021	-0.11932776	0.30936499	-0.62342489	-0.32073148	-0.35532631	-0.70051204	-0.25478365	-0.38486181
31	0.30000000	0.92496968	0.23239698	-0.05241659	-0.74387277	0.22483000	-0.54747715	-0.58855571	-0.58426013	0.08882627	-0.77424780	-0.33229758	-0.24523550	-0.65926830	0.46352438	0.17801409	-0.57405865	-0.11944274	0.30739780	-0.62471166	-0.32320957	-0.34951172	-0.69872526	-0.25050602	-0.38036702
32	0.31000000	0.92600367	0.23234782	-0.05527928	-0.74624403	0.22616390	-0.55654916	-0.58844529	-0.58391991	0.08686221	-0.77184953	-0.33330106	-0.23701652	-0.66114987	0.46679450	0.17545632	-0.57532880	-0.11653931	0.30902309	-0.62722998	-0.32214793	-0.35170929	-0.69825702	-0.24851830	-0.38186057
33	0.32000000	0.92222036	0.23698818	-0.05271114	-0.74073322	0.22072552	-0.55507044	-0.59095946	-0.58764322	0.08650312	-0.77390203	-0.33218848	-0.23982328	-0.66375223	0.46742203	0.17496275	-0.57324158	-0.11770337	0.30814225	-0.62957667	-0.32058359	-0.35170394	-0.69691129	-0.25513639	-0.38346353
34	0.33000000	0.92220507	0.23731177	-0.04809007	-0.74151935	0.22554480	-0.55475916	-0.59020819	-0.58703177	0.08540009	-0.77597772	-0.33341672	-0.24153805	-0.66412885	0.45884070	0.18035402	-0.57337478	-0.11304392	0.30366825	-0.62286180	-0.32047729	-0.34869730	-0.69930071	-0.24940807	-0.38333772
35	0.34000000	0.91995250	0.23572031	-0.05524132	-0.74399438	0.22275221	-0.55322996	-0.59373222	-0.58717770	0.08706493	-0.77164825	-0.33183495	-0.24206614	-0.66324955	0.46310178	0.18025923	-0.57422801	-0.11589005	0.30868152	-0.62412586	-0.32099227	-0.35137058	-0.69889825	-0.24848198	-0.38299160
36	0.35000000	0.92125781	0.23551687	-0.05820754	-0.74337542	0.22995614	-0.55620400	-0.58971423	-0.58720542	0.08871259	-0.77367148	-0.33482724	-0.23540921	-0.66425441	0.46521686	0.17972760	-0.57470239	-0.12142642	0.30712152	-0.62129553	-0.32359721	-0.34941847	-0.69895628	-0.24862759	-0.38456119
37	0.36000000	0.92206578	0.23736426	-0.05492768	-0.74701078	0.23370845	-0.55402784	-0.58729425	-0.58694861	0.09504070	-0.77239960	-0.33521783	-0.23987816	-0.65932004	0.46230435	0.18367725	-0.57440294	-0.11971422	0.30534955	-0.62599688	-0.32446912	-0.34577383	-0.69912662	-0.24822423	-0.38297461
38	0.37000000	0.92077795	0.23867613	-0.05675018	-0.74383185	0.23222667	-0.55188747	-0.59018217	-0.58800745	0.09601899	-0.76979508	-0.33458391	-0.23730751	-0.66315298	0.46899969	0.17821726	-0.57764162	-0.11875717	0.30627718	-0.62318147	-0.32190655	-0.34764430	-0.69838063	-0.25032045	-0.37678621
39	0.38000000	0.92268486	0.23307685	-0.04956384	-0.74240455	0.22540006	-0.55539735	-0.59149475	-0.58855913	0.09632149	-0.77312857	-0.33406729	-0.23637032	-0.66556327	0.46487186	0.17504530	-0.57561748	-0.12110752	0.30817460	-0.62271995	-0.32045628	-0.35161539	-0.70080769	-0.25226545	-0.38158498
40	0.39000000	0.92342381	0.23781241	-0.05166714	-0.74197262	0.22541162	-0.55237049	-0.59153233	-0.58859567	0.09518834	-0.76933874	-0.32645611	-0.23717694	-0.65714510	0.46667353	0.17891540	-0.57795830	-0.11962985	0.30737753	-0.62997227	-0.32087360	-0.35355887	-0.70036556	-0.24890719	-0.38202533
